PLOT:

A young fugitive prince and princess must stop a villain who unknowingly threatens to destroy the world with a special dagger that enables the magic sand inside to reverse time.

INFO:

General

Release name                     : Prince of Persia [2010]-480p-BRip-SmartGuy
Format                           : MPEG-4
Format profile                   : Base Media / Version 2
File size                        : 321 MiB
Duration                         : 1h 55mn
Overall bit rate                 : 387 Kbps

Video
ID                               : 1
Format                           : MP4
Format/Info                      : Advanced Video Codec
Format profile                   : Main@L3.0
Duration                         : 1h 55mn
Bit rate mode                    : Variable
Bit rate                         : 318 Kbps
Width                            : 720 pixels
Height                           : 304 pixels
Display aspect ratio             : 2.40:1
Frame rate mode                  : Variable
Frame rate                       : 23.976 fps
Minimum frame rate               : 23.810 fps
Maximum frame rate               : 24.390 fps
Color space                      : YUV
Chroma subsampling               : 4:2:0
Bit depth                        : 8 bits
Scan type                        : Progressive
Bits/(Pixel*Frame)               : 0.061
Stream size                      : 263 MiB (82%)

Audio
ID                               : 2
Format                           : AAC
Format/Info                      : Advanced Audio Codec
Format profile                   : LC
Codec ID                         : 40
Duration                         : 1h 55mn
Bit rate mode                    : Variable
Bit rate                         : 64.1 Kbps
Maximum bit rate                 : 95.7 Kbps
Channel(s)                       : 2 channels
Channel positions                : Front: L R
Sampling rate                    : 48.0 KHz
Compression mode                 : Lossy
Stream size                      : 53.1 MiB (17%)
Language                         : English


SCREENSHOTS:

 
http://leetleech.org/images/40057168900527933791.jpg 
http://leetleech.org/images/97581591677739982044.jpg 
http://leetleech.org/images/62197019302510715039.jpg 
http://leetleech.org/images/22831567011214539419.jpg 
http://leetleech.org/images/00683551713875522929.jpg 
http://leetleech.org/images/13954142996638968854.jpg


THUMBNAILS:
 
http://leetleech.org/images/44117584540225622492.jpg


PLEASE SEED AFTER DOWNLOADING! SEEDING IS HELPING!!

Join me on facebook